<svg width="79" height="75" viewBox="0 0 79 75" fill="none" xmlns="http://www.w3.org/2000/svg">
<path fill-rule="evenodd" clip-rule="evenodd" d="M15.8633 10.2068H43.0207C47.6187 10.2068 51.3429 14.2426 51.3429 19.2308V57.9363C51.3429 62.9221 47.6187 66.9579 43.0207 66.9579H15.8633C11.264 66.9579 7.54102 62.9221 7.54102 57.9363V19.2308C7.54102 14.2426 11.264 10.2068 15.8633 10.2068Z" fill="white"/>
<path d="M15.8633 10.2068H43.0207C47.6187 10.2068 51.3429 14.2426 51.3429 19.2308V57.9363C51.3429 62.9221 47.6187 66.9579 43.0207 66.9579H15.8633C11.264 66.9579 7.54102 62.9221 7.54102 57.9363V19.2308C7.54102 14.2426 11.264 10.2068 15.8633 10.2068" stroke="#1C1C1C" stroke-width="1.5"/>
<rect x="20.8342" y="15.5641" width="42.7068" height="29.5578" rx="6.57028" fill="#B3F8F8" stroke="#1C1C1C" stroke-width="1.5" stroke-miterlimit="10" stroke-linecap="round" stroke-linejoin="round"/>
<path d="M44.925 30.9341L63.5408 30.9341" stroke="#1C1C1C" stroke-width="1.5" stroke-linecap="round" stroke-dasharray="3.29 4.38"/>
<path d="M27.9519 30.9341L36.1648 30.9341" stroke="#1C1C1C" stroke-width="1.5" stroke-linecap="round"/>
<path d="M37.26 37.225H43.8303" stroke="#1C1C1C" stroke-width="1.5" stroke-miterlimit="10" stroke-linecap="round" stroke-linejoin="round"/>
<path d="M37.26 23.8402H43.8303" stroke="#1C1C1C" stroke-width="1.5" stroke-miterlimit="10" stroke-linecap="round" stroke-linejoin="round"/>
<path d="M40.5452 23.8402V36.6898" stroke="#1C1C1C" stroke-width="1.5" stroke-miterlimit="10" stroke-linecap="round" stroke-linejoin="round"/>
</svg>
