<svg width="71" height="74" viewBox="0 0 71 74" fill="none" xmlns="http://www.w3.org/2000/svg">
<path d="M32.9605 28.5003C32.4604 27.0002 30.9604 27.0002 30.4605 28.5003C29.9862 29.9233 31.6175 32.0377 33.4604 32.0001C34.7925 31.973 36.9605 30.6102 36.9605 28.0003" stroke="black"/>
<path d="M38.4609 28.5003C38.9609 27.0003 40.4609 27.0003 40.9609 28.5003C41.4351 29.9233 39.8039 32.0377 37.961 32.0002C36.6289 31.973 34.4609 30.6103 34.4609 28.0003" stroke="black"/>
<ellipse cx="35.4222" cy="61.4169" rx="4.90758" ry="4.41682" fill="#545454"/>
<path d="M56.5609 28.2128L64.6982 28.2343" stroke="#545454" stroke-width="1.5" stroke-miterlimit="10" stroke-linecap="round"/>
<path d="M5.46075 28.2458L14.2554 28.269" stroke="#545454" stroke-width="1.5" stroke-miterlimit="10" stroke-linecap="round"/>
<path d="M50.7515 15.7732L56.8027 9.72198" stroke="#545454" stroke-width="1.5" stroke-miterlimit="10" stroke-linecap="round"/>
<path d="M14.2568 9.72195L19.7754 15.2406" stroke="#545454" stroke-width="1.5" stroke-miterlimit="10" stroke-linecap="round"/>
<path d="M36.2617 9.04366L36.267 0.76477" stroke="#545454" stroke-width="1.5" stroke-miterlimit="10" stroke-linecap="round"/>
<path d="M51.5406 30.1358C51.5406 21.2262 44.3105 13.9677 35.3725 13.9677C26.463 13.9677 19.2614 21.1124 19.2045 30.0504C19.176 34.2916 20.7985 38.1629 23.4457 41.0663C26.2922 44.169 27.8293 48.211 27.8293 52.4238C27.8293 54.2171 29.281 55.6688 31.0743 55.6688H39.6423C41.4356 55.6688 42.8873 54.2171 42.8873 52.4238C42.8873 48.1825 44.5098 44.1405 47.3563 40.9809C49.9466 38.1059 51.5406 34.3201 51.5406 30.1358Z" fill="#B3F8F8" stroke="#545454" stroke-width="1.5" stroke-miterlimit="10"/>
<path d="M36.369 47.7838H34.6042C33.921 47.7838 33.3802 48.2962 33.3233 48.9509L32.0708 60.166H38.7031L37.6784 48.9793C37.6215 48.2962 37.0522 47.7838 36.369 47.7838Z" fill="white" stroke="#545454" stroke-width="1.5" stroke-miterlimit="10"/>
<path d="M40.5243 62.4997H30.2485C29.9354 62.4997 29.6792 62.2435 29.6792 61.9304V56.2379C29.6792 55.9248 29.9354 55.6686 30.2485 55.6686H40.5243C40.8374 55.6686 41.0936 55.9248 41.0936 56.2379V61.9304C41.0936 62.2435 40.8374 62.4997 40.5243 62.4997Z" fill="white" stroke="#545454" stroke-width="1.5" stroke-miterlimit="10"/>
<path d="M29.6504 57.9999H41.0933" stroke="#545454" stroke-width="1.5" stroke-miterlimit="10"/>
<path d="M29.4609 59.9999H40.9038" stroke="#545454" stroke-width="1.5" stroke-miterlimit="10"/>
<path d="M33.224 47.6396C33.301 48.0466 33.6934 48.3141 34.1004 48.2371C34.5073 48.1601 34.7749 47.7677 34.6979 47.3607L33.224 47.6396ZM34.6979 47.3607L31.1979 28.8607L29.724 29.1396L33.224 47.6396L34.6979 47.3607Z" fill="#545454"/>
<path d="M36.9609 47.9999L40.4609 28.9999" stroke="#545454" stroke-width="1.5" stroke-miterlimit="10" stroke-linejoin="round"/>
<path d="M33.4609 27.0001C33.4609 25.8956 32.5655 25.0001 31.4609 25.0001C30.3564 25.0001 29.4609 25.8956 29.4609 27.0001" stroke="#545454" stroke-width="1.5"/>
<path d="M41.4609 27.0001C41.4609 25.8956 40.5655 25.0001 39.4609 25.0001C38.3564 25.0001 37.4609 25.8956 37.4609 27.0001" stroke="#545454" stroke-width="1.5"/>
<path d="M29.4609 27.0001C29.4609 28.1047 30.8041 30.0001 32.4609 30.0001C36.4609 30.0001 37.4609 28.1047 37.4609 27.0001" stroke="#545454" stroke-width="1.5"/>
<path d="M37.4609 27.0001C37.4609 25.8956 36.5655 25.0001 35.4609 25.0001C34.3564 25.0001 33.4609 25.8956 33.4609 27.0001" stroke="#545454" stroke-width="1.5"/>
<path d="M33.4609 27.0001C33.4609 28.1047 34.9609 30.0001 38.4609 30.0001C40.1178 30.0001 41.4609 28.1047 41.4609 27.0001" stroke="#545454" stroke-width="1.5"/>
</svg>
