<svg width="79" height="75" viewBox="0 0 79 75" fill="none" xmlns="http://www.w3.org/2000/svg">
<path d="M39.9657 68.8925H13.1248C8.22028 68.8925 4.20752 64.8917 4.20752 60.0018V26.2173C4.20752 21.3275 8.22028 17.3267 13.1248 17.3267H38.2714C43.1759 17.3267 47.1887 21.3275 47.1887 26.2173V61.691C47.1887 65.6029 43.9784 68.8925 39.9657 68.8925Z" fill="white" stroke="#1C1C1C" stroke-width="1.5" stroke-miterlimit="10" stroke-linecap="round" stroke-linejoin="round"/>
<path d="M12.0554 42.1316H27.839" stroke="#1C1C1C" stroke-width="1.5" stroke-miterlimit="10" stroke-linecap="round" stroke-linejoin="round"/>
<path d="M12.0554 34.219H27.839" stroke="#1C1C1C" stroke-width="1.5" stroke-miterlimit="10" stroke-linecap="round" stroke-linejoin="round"/>
<path d="M12.0554 26.2172H27.839" stroke="#1C1C1C" stroke-width="1.5" stroke-miterlimit="10" stroke-linecap="round" stroke-linejoin="round"/>
<path d="M12.0537 49.3331H14.9073" stroke="#1C1C1C" stroke-width="1.5" stroke-miterlimit="10" stroke-linecap="round" stroke-linejoin="round"/>
<path d="M13.3927 61.6022V49.3331" stroke="#1C1C1C" stroke-width="1.5" stroke-miterlimit="10" stroke-linecap="round" stroke-linejoin="round"/>
<path d="M12.0537 61.6022H14.9073" stroke="#1C1C1C" stroke-width="1.5" stroke-miterlimit="10" stroke-linecap="round" stroke-linejoin="round"/>
<path d="M53.0745 59.5627H39.5202C35.9533 59.5627 33.0106 56.6288 33.0106 53.0726V14.3982C33.0106 10.8419 35.9533 7.90802 39.5202 7.90802H51.3802C54.9471 7.90802 57.8898 10.8419 57.8898 14.3982V54.6729C57.8898 57.429 55.7496 59.5627 53.0745 59.5627Z" fill="white" stroke="#1C1C1C" stroke-width="1.5" stroke-miterlimit="10" stroke-linecap="round" stroke-linejoin="round"/>
<path d="M57.5331 49.4279C63.2459 49.4279 67.8771 44.8105 67.8771 39.1147C67.8771 33.4189 63.2459 28.8016 57.5331 28.8016C51.8202 28.8016 47.1891 33.4189 47.1891 39.1147C47.1891 44.8105 51.8202 49.4279 57.5331 49.4279Z" fill="#B3F8F8" stroke="#1C1C1C" stroke-width="1.5" stroke-miterlimit="10" stroke-linecap="round" stroke-linejoin="round"/>
<path d="M52.5394 39.115L56.1063 42.6712L63.2401 35.5587" stroke="#1C1C1C" stroke-width="1.5" stroke-linecap="round"/>
<path d="M38.6288 24.2715H45.4059" stroke="#1C1C1C" stroke-width="1.5" stroke-miterlimit="10" stroke-linecap="round" stroke-linejoin="round"/>
<path d="M38.6288 16.3587H53.253" stroke="#1C1C1C" stroke-width="1.5" stroke-miterlimit="10" stroke-linecap="round" stroke-linejoin="round"/>
</svg>
