<svg width="79" height="75" viewBox="0 0 79 75" fill="none" xmlns="http://www.w3.org/2000/svg">
<path d="M18.541 4.20679H53.8351C57.5606 4.20679 60.5018 7.38036 60.5018 11.1682V55.5982C60.5018 59.4884 57.4626 62.5596 53.8351 62.5596H18.541C14.8156 62.5596 11.8744 59.3861 11.8744 55.5982V11.1682C11.8744 7.38036 14.9136 4.20679 18.541 4.20679Z" fill="white" stroke="#1C1C1C" stroke-width="1.5" stroke-miterlimit="10" stroke-linecap="round" stroke-linejoin="round"/>
<path d="M19.7384 14.1317H52.6606" stroke="#1C1C1C" stroke-width="1.5" stroke-linecap="round"/>
<path d="M19.1685 23.6577H36.188" stroke="#1C1C1C" stroke-width="1.5" stroke-linecap="round"/>
<path d="M50.9274 20.8222L51.4418 22.747C51.6476 23.6588 52.4707 24.4693 53.3966 24.6719L55.3513 25.1784C55.8658 25.2797 55.8658 25.9889 55.3513 26.0902L53.3966 26.5967C52.4707 26.7993 51.6476 27.6098 51.4418 28.5215L50.9274 30.3451C50.8245 30.8516 50.1044 30.8516 50.0015 30.3451L49.4871 28.4202C49.2813 27.5085 48.4583 26.698 47.5323 26.4954L45.5776 25.9889C45.0632 25.8876 45.0632 25.1784 45.5776 25.0771L47.5323 24.5706C48.4583 24.368 49.2813 23.5575 49.4871 22.6457L50.0015 20.7209C50.0015 20.3157 50.7217 20.3157 50.9274 20.8222Z" fill="#B3F8F8" stroke="#1C1C1C" stroke-width="1.5" stroke-miterlimit="10" stroke-linecap="round" stroke-linejoin="round"/>
<path d="M37.0869 28.9241L37.4984 30.4437C37.7041 31.1529 38.3214 31.7607 39.0416 31.9633L40.5848 32.3685C40.9964 32.4698 40.9964 33.0777 40.5848 33.0777L39.0416 33.4829C38.3214 33.6855 37.7041 34.2934 37.4984 35.0025L37.0869 36.5221C36.984 36.9274 36.3667 36.9274 36.3667 36.5221L35.9552 35.0025C35.7494 34.2934 35.1321 33.6855 34.4119 33.4829L32.8687 33.0777C32.4572 32.9764 32.4572 32.3685 32.8687 32.3685L34.4119 31.9633C35.1321 31.7607 35.7494 31.1529 35.9552 30.4437L36.3667 28.9241C36.4696 28.5189 36.984 28.5189 37.0869 28.9241Z" fill="#B3F8F8" stroke="#1C1C1C" stroke-width="1.5" stroke-miterlimit="10" stroke-linecap="round" stroke-linejoin="round"/>
<path d="M45.736 74.2068C44.0899 74.2068 42.8553 72.8898 42.8553 71.3702V39.7624C42.8553 38.1415 44.1928 36.9258 45.736 36.9258C47.3821 36.9258 48.6167 38.2428 48.6167 39.7624V71.3702C48.6167 72.9911 47.2793 74.2068 45.736 74.2068Z" fill="#B3F8F8" stroke="#1C1C1C" stroke-width="1.5" stroke-miterlimit="10" stroke-linecap="round" stroke-linejoin="round"/>
<path d="M48.6167 47.2623V39.8669C48.6167 38.246 47.2793 37.0303 45.736 37.0303C44.0899 37.0303 42.8553 38.3473 42.8553 39.8669V47.2623H48.6167Z" fill="white" stroke="#1C1C1C" stroke-width="1.5" stroke-miterlimit="10" stroke-linecap="round" stroke-linejoin="round"/>
</svg>
